HIERARCHY
ROOT Hips
{
  OFFSET 263.056 91.6644 -274.608
  CHANNELS 6 Xposition Yposition Zposition Zrotation Xrotation Yrotation
  JOINT LeftUpLeg
  {
    OFFSET 8.64259 1.95398 -2.38835
    CHANNELS 3 Zrotation Xrotation Yrotation
    JOINT LeftLeg
    {
      OFFSET 43.7702 0 0
      CHANNELS 3 Zrotation Xrotation Yrotation
      JOINT LeftFoot
      {
        OFFSET 40.6238 0 0
        CHANNELS 3 Zrotation Xrotation Yrotation
        JOINT LeftToeBase
        {
          OFFSET 12.7242 0 0
          CHANNELS 3 Zrotation Xrotation Yrotation
          End Site
          {
            OFFSET 0 0 0
          }
        }
      }
    }
  }
  JOINT RightUpLeg
  {
    OFFSET -8.2249 1.95398 -2.59336
    CHANNELS 3 Zrotation Xrotation Yrotation
    JOINT RightLeg
    {
      OFFSET 43.5653 0 0
      CHANNELS 3 Zrotation Xrotation Yrotation
      JOINT RightFoot
      {
        OFFSET 40.6238 0 0
        CHANNELS 3 Zrotation Xrotation Yrotation
        JOINT RightToeBase
        {
          OFFSET 12.7242 0 0
          CHANNELS 3 Zrotation Xrotation Yrotation
          End Site
          {
            OFFSET 0 0 0
          }
        }
      }
    }
  }
  JOINT Spine
  {
    OFFSET 0.165834 0.87714 6.61349
    CHANNELS 3 Zrotation Xrotation Yrotation
    JOINT Spine1
    {
      OFFSET 7.38963 1.71661e-005 0
      CHANNELS 3 Zrotation Xrotation Yrotation
      JOINT Spine2
      {
        OFFSET 11.9445 1.14441e-005 0
        CHANNELS 3 Zrotation Xrotation Yrotation
        JOINT Spine3
        {
          OFFSET 14.7254 4.19617e-005 0
          CHANNELS 3 Zrotation Xrotation Yrotation
          JOINT Spine4
          {
            OFFSET 10.9679 0 0
            CHANNELS 3 Zrotation Xrotation Yrotation
            JOINT RightShoulder
            {
              OFFSET 2.46616 -1.6653 3.69651
              CHANNELS 3 Zrotation Xrotation Yrotation
              JOINT RightArm
              {
                OFFSET 13.0012 0 0
                CHANNELS 3 Zrotation Xrotation Yrotation
                JOINT RightForeArm
                {
                  OFFSET 28.7848 1.52588e-005 0
                  CHANNELS 3 Zrotation Xrotation Yrotation
                  JOINT RightHand
                  {
                    OFFSET 26.5688 1.52588e-005 0
                    CHANNELS 3 Zrotation Xrotation Yrotation
                    End Site
                    {
                      OFFSET 0 0 0
                    }
                  }
                }
              }
            }
            JOINT LeftShoulder
            {
              OFFSET 2.38034 -1.29275 -3.7523
              CHANNELS 3 Zrotation Xrotation Yrotation
              JOINT LeftArm
              {
                OFFSET 16.3182 6.10352e-005 0
                CHANNELS 3 Zrotation Xrotation Yrotation
                JOINT LeftForeArm
                {
                  OFFSET 27.0901 0 0
                  CHANNELS 3 Zrotation Xrotation Yrotation
                  JOINT LeftHand
                  {
                    OFFSET 24.5451 1.52588e-005 0
                    CHANNELS 3 Zrotation Xrotation Yrotation
                    End Site
                    {
                      OFFSET 0 0 0
                    }
                  }
                }
              }
            }
            JOINT Neck
            {
              OFFSET 5.0226 -0.0266342 0
              CHANNELS 3 Zrotation Xrotation Yrotation
              JOINT Head
              {
                OFFSET 6.69364 2.86102e-005 0
                CHANNELS 3 Zrotation Xrotation Yrotation
                End Site
                {
                  OFFSET 0 0 0
                }
              }
            }
          }
        }
      }
    }
  }
}
MOTION
Frames:	15
Frame Time:	0.0416667
31.5808 97.2407 -248.485 -46.739 -88.1353 -47.4325 -175.289 6.91163 86.3164 -14.4714 16.3992 0.0491014 63.4851 10.4939 13.5057 36.0333 8.3661 8.33963 177.623 20.3216 88.1222 179.493 84.0076 153.034 7.27851 -4.4092 0.449572 6.77689 -55.8842 120.99 -0.116334 7.19307 -89.9985 12.4878 -0.230392 0.0295048 0.816871 -0.228865 0.0396154 -21.7185 -0.228609 -0.0411033 -1.7058 -0.228601 -0.0411002 77.2212 -51.888 -119.157 24.2846 -11.2331 5.76622 -9.0439 -19.0804 -39.16 -4.87534 -0.528944 4.64357 -105.217 -45.0523 54.2829 -29.0263 9.0922 3.07864 3.74973 10.101 -29.6332 11.8605 0.906178 3.60062 9.96205 2.42259 4.17563 -4.56642 1.43713 -0.919137 
31.8577 96.9225 -247.537 -21.3877 -88.1383 -22.2771 -175.731 7.11291 85.7848 -15.1748 17.5831 0.123337 62.9449 13.0203 18.3468 32.016 3.78998 -3.42108 178.149 21.2256 88.4353 -40.709 77.2913 9.90548 8.8101 -0.279657 6.58285 27.2772 -12.3403 125.932 -0.0788657 7.23083 -89.9731 12.4122 -0.143851 0.070301 0.741283 -0.140621 0.0765439 -21.7939 -0.158335 0.0238111 -1.78126 -0.158336 0.0238067 78.231 -51.726 -117.774 24.6814 -10.8873 5.85819 -8.18074 -17.3551 -39.4947 -5.08685 -0.628176 7.87633 -105.981 -44.499 52.8875 -28.7679 9.19556 3.38263 3.511 9.09974 -30.3329 12.0253 0.951416 3.86761 9.3742 1.98828 3.28704 -3.65867 1.22144 -0.334595 
32.2817 96.7105 -246.385 -0.803821 -88.3248 -1.31008 -175.632 6.62754 85.954 -15.7492 16.7939 0.222136 64.169 14.1275 17.4631 31.5623 3.46595 -6.2985 178.068 20.7895 90.1321 -37.5252 42.7882 1.96158 22.9197 7.05461 12.3791 56.5892 23.971 83.9896 -0.109725 7.2932 -90.0048 12.2878 -0.220321 0.0149924 0.61689 -0.219451 0.0246748 -21.9184 -0.214645 -0.051914 -1.90579 -0.214638 -0.051914 77.8301 -51.8344 -118.306 24.7129 -10.5845 6.71933 -8.34976 -17.3891 -39.2912 -6.04006 -0.688203 6.99666 -105.334 -44.2975 53.7452 -29.0651 9.72186 3.10421 3.79453 9.57648 -31.3074 11.9183 0.981509 4.16847 8.81793 1.84021 3.10282 -2.98082 1.13201 -0.231524 
32.8307 96.0291 -245.276 -21.434 -88.1606 -21.3649 -175.301 7.34137 86.1595 -18.6646 16.1458 0.0138224 65.3659 15.511 18.1793 34.2922 6.20143 -9.13885 178.25 20.1379 92.1594 -41.0748 17.8495 0.118451 45.0415 6.93269 6.6188 70.5545 12.1975 31.5944 -0.00621845 7.36537 -90.0365 12.1426 -0.0296052 -0.0698889 0.471685 -0.0326559 -0.0685291 -22.0634 -0.00723448 -0.0755541 -2.05077 -0.00723984 -0.0755676 77.906 -51.6282 -118.283 25.1984 -10.5773 7.64849 -8.29851 -17.1498 -39.834 -6.22521 -0.698731 6.8853 -105.211 -44.0304 53.7981 -28.5866 10.7953 2.63833 3.86019 9.83756 -32.6659 12.0595 1.14687 5.3846 8.02215 1.7588 2.92526 -1.88504 1.1068 -0.388562 
33.0435 95.4909 -244.222 -49.0744 -87.784 -50.3403 -175.452 6.80521 84.716 -19.8445 14.3434 -0.140346 66.8221 16.1906 17.18 35.6262 7.37983 -14.0329 178.436 19.35 91.9155 -42.8237 7.33684 -1.55618 58.2079 1.21632 1.01026 63.8732 5.22685 12.0605 -0.00112896 7.49595 -89.7913 11.8816 0.0960533 0.405905 0.210628 0.113824 0.401267 -22.324 -0.0303863 0.416002 -2.31138 -0.0303725 0.416006 77.8446 -51.848 -118.279 25.95 -10.5808 7.85949 -8.66797 -17.1238 -39.7388 -6.32895 -0.700259 6.6964 -104.918 -43.6092 54.0301 -27.4385 10.7794 2.57624 4.78036 9.697 -35.2703 11.2061 0.949427 4.3487 7.05934 2.0826 2.12499 0.1128 1.6104 -0.135547 
33.6475 95.2845 -242.644 -42.7561 -87.7198 -43.4501 -175.164 6.5276 84.9449 -20.9371 13.6858 -0.153014 67.7128 16.5378 16.7929 37.5166 8.92637 -16.0548 178.581 20.1482 92.4467 -43.3877 3.80005 -1.43225 66.5635 -2.93778 -1.62551 54.8883 2.49262 5.37284 -0.174509 7.58174 -89.8467 11.7111 -0.275046 0.335122 0.0401488 -0.260032 0.346895 -22.495 -0.363055 0.236957 -2.48235 -0.363053 0.23696 78.4531 -51.6414 -117.488 26.974 -10.7905 8.01727 -8.49138 -17.2775 -39.8552 -6.62061 -0.754726 7.34017 -105.251 -43.8634 53.6571 -25.5124 10.7921 1.17154 4.741 9.15758 -36.0534 11.2367 0.895655 3.87676 6.40084 2.84819 2.98351 1.09177 2.20853 -0.0618436 
34.3741 95.4685 -240.17 0.424704 -87.6546 1.04751 -175.414 4.67435 85.752 -19.0294 15.328 0.493048 67.6411 17.1253 17.663 37.3535 8.68696 -18.6617 178.913 21.8522 92.8301 -38.114 3.34464 -0.775817 68.2396 -3.57821 -1.93338 50.9921 1.68965 2.4513 -0.46848 7.52263 -90.0477 11.8296 -0.954072 0.00594926 0.158984 -0.952884 0.0479346 -22.3788 -0.911755 -0.281093 -2.36619 -0.911749 -0.281084 78.5491 -51.7582 -117.302 27.6646 -10.7606 10.0849 -8.12236 -16.54 -39.2666 -6.87875 -0.720399 6.22606 -105.785 -43.6827 52.7715 -24.7622 10.4128 0.0296033 4.8424 8.89383 -36.3673 11.0278 1.01305 4.99613 5.32446 3.1957 2.86933 1.26018 2.64844 1.12085 
34.5548 95.6008 -237.799 -24.5637 -87.5813 -23.8813 -174.591 1.20849 85.9959 -15.4955 15.4986 -0.0989349 67.4494 17.2758 17.5257 37.161 8.56305 -17.8515 -179.708 24.1394 92.8755 -31.0885 4.94435 -1.15673 66.3551 -2.63198 -1.43149 47.6101 1.45459 2.92379 -0.541106 7.57419 -90.0778 11.7258 -1.11269 -0.0379704 0.0553051 -1.11328 0.0110357 -22.4834 -1.04983 -0.370657 -2.47071 -1.04983 -0.370664 78.25 -52.009 -117.63 27.8548 -10.3236 11.7857 -9.71309 -16.4695 -39.8047 -5.94613 -0.70925 8.11913 -105.287 -43.2239 53.2888 -24.5243 10.0689 -1.04308 5.2655 8.31496 -37.9704 10.3375 0.865829 4.2053 6.10329 3.57773 2.74383 0.879794 3.01848 1.02333 
34.6462 95.3376 -235.027 -49.1897 -86.5526 -48.7101 -174.03 -1.48728 86.0233 -13.477 15.2891 -0.582808 66.8477 16.9683 18.4515 40.2302 11.0016 -18.3236 -178.817 26.132 92.6902 -23.5908 3.11131 -0.994815 63.5909 -1.62352 -0.8802 42.8449 1.19498 5.43859 -0.538375 7.64967 -90.054 11.575 -1.09621 0.0055102 -0.0954776 -1.09492 0.0537457 -22.6341 -1.04719 -0.324239 -2.62146 -1.04719 -0.324245 78.7573 -52.3688 -116.756 27.7404 -9.66562 12.1927 -6.65712 -15.7487 -37.6987 -6.19807 -0.775992 8.9985 -105.405 -42.8625 52.9307 -23.1001 10.3399 -1.90259 5.73449 8.07597 -40.1777 11.2776 1.03671 5.02773 7.1601 3.40449 2.21084 1.24263 2.95326 1.62876 
34.6442 94.7917 -231.819 -39.1782 -86.4439 -38.9608 -173.859 -3.29802 85.996 -13.1235 15.8026 -0.611586 67.1721 17.2471 18.3032 42.1444 12.7977 -15.8757 -178.646 27.9587 92.1726 -17.421 3.36238 -0.408499 62.409 -1.16621 -0.607365 42.429 1.21808 6.62019 -0.735571 7.69575 -90.0242 11.4839 -1.47472 0.102204 -0.186216 -1.46879 0.167024 -22.7278 -1.43725 -0.345824 -2.71519 -1.43724 -0.345831 77.8904 -53.5228 -117.528 26.4628 -8.58123 12.3302 -6.31401 -16.2553 -36.0996 -6.6165 -0.591237 3.83746 -105.082 -42.4812 53.2255 -21.5013 10.5547 -3.24129 5.76656 8.05289 -40.7774 11.9367 1.09146 5.01584 7.70644 3.53229 1.90895 1.94558 3.12831 1.44815 
34.5815 94.0573 -227.919 -32.5373 -86.5253 -32.273 -173.578 -4.73459 86.3693 -14.801 17.4961 -0.539981 65.6962 16.5936 20.1897 47.766 17.4191 -16.1349 -178.492 29.025 92.1798 -15.0481 4.43288 -0.12574 62.4285 -1.20993 -0.632679 42.8571 1.23488 6.06232 -0.881325 7.74602 -90.0865 11.3831 -1.79401 0.00799593 -0.286587 -1.79192 0.0869648 -22.8311 -1.71345 -0.531713 -2.81844 -1.71345 -0.531715 77.4786 -53.9721 -117.926 25.7733 -8.13861 12.6143 -7.04215 -16.7342 -35.8989 -5.77925 -0.639634 6.43741 -105.828 -42.5408 52.1315 -20.5423 9.62357 -3.63471 5.51005 7.83555 -39.7498 12.4909 1.18102 5.35111 7.40017 3.26243 2.2579 2.76014 2.81716 1.58521 
34.3809 93.2494 -223.143 -29.9191 -87.3558 -29.5821 -173.565 -6.6264 87.0008 -18.1873 20.2969 -0.0668028 63.8857 14.7984 20.7005 53.0167 22.4302 -13.5279 -178.81 29.9839 92.5265 -21.0201 4.36454 -0.143208 61.6306 -1.04446 -0.532343 40.5689 0.958806 5.64103 -0.992811 7.84696 -90.1541 11.1796 -2.04759 -0.106107 -0.489714 -2.05027 -0.0158582 -23.0365 -1.921 -0.716807 -3.02389 -1.92099 -0.716816 77.3184 -54.5612 -117.913 24.7212 -8.77743 13.4143 -7.85658 -17.2015 -37.5001 -4.79494 -0.568837 6.77986 -106.133 -42.3702 51.5859 -20.9711 8.96152 -3.9184 5.04213 8.30821 -36.835 12.3636 1.15762 5.26325 7.3996 3.07817 2.29594 2.85304 2.64641 1.90166 
34.2313 92.8334 -217.688 -17.1068 -88.3632 -15.1285 -173.489 -7.22322 89.4865 -24.0815 23.1796 0.878003 61.0149 10.6648 18.8633 58.5569 28.4755 -9.83944 -179.59 30.2167 94.0311 -28.8432 4.98081 0.346269 61.8878 -1.23249 -0.656315 38.2179 0.677309 4.85584 -1.11623 7.89336 -90.4574 11.0812 -2.43408 -0.675155 -0.587542 -2.46144 -0.56733 -23.136 -2.11862 -1.37574 -3.12331 -2.11862 -1.37576 76.9394 -54.1007 -118.63 24.0917 -8.97209 12.5429 -6.22267 -17.7456 -34.4175 -5.14136 -0.585248 6.33578 -106.869 -43.0662 50.8472 -22.4116 8.60896 -2.11301 4.27208 7.94817 -34.5818 13.5648 1.37358 6.06096 6.72276 3.34414 3.19821 2.75524 2.75084 2.0348 
33.6178 92.6651 -211.9 -43.7713 -88.6894 -41.5568 -172.968 -4.4005 92.11 -33.5429 23.5386 0.700837 54.3305 -0.867434 7.07741 64.678 35.5686 -6.39142 179.945 29.1693 95.3234 -35.3762 4.90696 0.311692 66.3662 -2.47952 -1.35406 33.5304 0.128801 8.18771 -1.06315 7.89442 -90.4846 11.0785 -2.34103 -0.738483 -0.590481 -2.37126 -0.634691 -23.1371 -2.01084 -1.40811 -3.12448 -2.01084 -1.40812 76.7071 -54.6234 -118.739 23.5216 -8.07208 11.6885 -7.15343 -19.0045 -35.1439 -4.45682 -0.538605 6.49893 -106.952 -43.0138 50.6965 -24.4041 8.67777 0.588847 3.38885 6.90075 -33.1808 12.894 1.49142 7.37891 5.7425 3.15023 2.66558 2.63409 2.69755 2.20011 
33.0094 92.5274 -206.536 -59.3245 -88.1702 -56.7066 -172.874 2.15011 94.5669 -46.4272 24.4733 0.187168 45.3176 -9.76874 1.25701 56.7285 30.788 0.801493 -179.988 27.4571 96.6739 -39.1386 4.76982 0.0171232 70.2141 -3.41964 -1.77971 32.7258 0.0101182 8.22802 -0.838771 7.80397 -90.4836 11.2596 -1.89432 -0.775665 -0.410161 -1.92663 -0.691523 -22.9517 -1.57363 -1.30921 -2.93909 -1.57363 -1.30921 76.8673 -54.2492 -118.671 24.3569 -7.66897 10.7972 -6.14487 -15.8019 -36.1318 -4.68258 -0.553822 6.93876 -106.524 -42.9627 51.3063 -26.2083 9.73758 2.74663 3.09879 8.18591 -31.6061 12.7831 1.27752 5.89545 5.45151 2.5272 1.55523 2.05711 2.29188 2.20513 
